<svg width="100" height="100" fill="none" xmlns="http://www.w3.org/2000/svg"><path d="M54.5 84.333a35.375 35.375 0 01-16.292-3.958 2.087 2.087 0 011.917-3.708 31.334 31.334 0 10-12.5-11.542A2.125 2.125 0 0126.917 68a2.084 2.084 0 01-2.875-.708 35.416 35.416 0 0154.541-44.334A35.416 35.416 0 0161 83.75a34.57 34.57 0 01-6.5.583z" fill="#95E1D3"/><path d="M22.167 86.5a4.917 4.917 0 01-4.417-6.875l6.333-14.25a2.126 2.126 0 012.792-1.042 2.083 2.083 0 011.042 2.75l-6.375 14.25a.625.625 0 000 .75.71.71 0 00.75.209l16.041-5.709A2.043 2.043 0 0141 77.833a2.083 2.083 0 01-1.25 2.667l-15.917 5.71a4.667 4.667 0 01-1.666.291z" fill="#95E1D3"/></svg>